<svg width="1024" height="1024" viewBox="0 0 1024 1024" fill="none" xmlns="http://www.w3.org/2000/svg">
<path fill-rule="evenodd" clip-rule="evenodd" d="M512 1024C563.24 1024 612.721 1016.47 659.4 1002.46C645.211 973.646 633.078 939.996 621.62 908.215C602.141 854.189 584.607 805.56 562.224 795.229C542.682 786.21 468.03 782.087 392.05 777.89C316.393 773.711 239.42 769.46 214.224 760.229C163.724 741.729 104.051 610.674 116.724 521.229C117.459 516.045 118.019 511.299 118.545 506.847L118.545 506.844C121.07 485.456 122.797 470.826 139.224 446.729C231.935 336.002 456.977 270.181 786.724 253.229C801.121 231.863 824.511 203.711 853.724 212.729C878.98 220.527 889.868 235.451 888.724 269.229C889.417 271.844 890.093 274.344 890.745 276.759C896.125 296.668 899.913 310.69 898.724 333.729C896.859 369.856 858.389 414.361 842.498 432.746L842.495 432.749C838.252 437.658 835.619 440.704 835.724 441.229C835.724 441.229 907.39 363.178 908.724 337.344C909.913 314.304 906.125 300.282 900.745 280.373C900.093 277.958 899.417 275.458 898.724 272.844L978.989 301.776C898.767 123.849 719.847 0 512 0C229.23 0 0 229.23 0 512C0 794.77 229.23 1024 512 1024ZM643.224 363.229C619.55 349.685 597.334 340.887 567.724 346.729C532.478 353.684 491.226 400.728 496.724 405.229C502.218 409.724 519.684 395.263 519.724 395.229C519.724 395.229 562.948 409.747 588.224 400.729C606.345 394.265 627.694 371.261 627.724 371.229L643.224 363.229Z" fill="white"/>
</svg>
