<svg xmlns="http://www.w3.org/2000/svg" width="400" height="120" viewBox="0 0 400 120">
  <style>
    .header { font: 600 18px 'Segoe UI', Ubuntu, Sans-Serif; fill: #006AFF }          
    .description { font: 400 13px 'Segoe UI', Ubuntu, Sans-Serif; fill: #417E87 }
    .gray { font: 400 12px 'Segoe UI', Ubuntu, Sans-Serif; fill: #417E87 }
    .icon { fill: #0579C3 }
    .badge { font: 600 11px 'Segoe UI', Ubuntu, Sans-Serif; }
    .badge rect { opacity: 0.2 }
        </style>
  <rect x="0.5" y="0.5" rx="4.5" height="99%" stroke="#e4e2e2" width="399" fill="#ffffff00" stroke-opacity="1"/>
  <g transform="translate(25, 35)">
    <g>
      <svg class="icon" x="0" y="-13" viewBox="0 0 16 16" version="1.1" width="16" height="16">
        <path fill-rule="evenodd" d="M2 2.5A2.5 2.5 0 014.5 0h8.75a.75.75 0 01.75.75v12.5a.75.75 0 01-.75.75h-2.5a.75.75 0 110-1.5h1.75v-2h-8a1 1 0 00-.714 1.7.75.75 0 01-1.072 1.05A2.495 2.495 0 012 11.5v-9zm10.5-1V9h-8c-.356 0-.694.074-1 .208V2.5a1 1 0 011-1h8zM5 12.25v3.25a.25.25 0 00.4.2l1.45-1.087a.25.25 0 01.3 0L8.6 15.7a.25.25 0 00.4-.2v-3.25a.25.25 0 00-.25-.25h-3.5a.25.25 0 00-.25.25z"/>
      </svg>
    </g>
    <g transform="translate(25, 0)">
      <text x="0" y="0" class="header">Kraig</text>
    </g>
  </g>
  <g transform="translate(0, 55)">
    <text class="description" x="25" y="-5">
      <tspan dy="1.2em" x="25">Roslyn-component for automating common code patterns</tspan>
    </text>
    <g transform="translate(30, 45)">
      <g>
        <g>
          <svg fill="#178600" x="-8" y="-13" width="16" height="16" viewBox="0 0 24 24" xmlns="http://www.w3.org/2000/svg"><path d="m23.6004 9.5927-.0337-.0862L20.3.9814a.851.851 0 0 0-.3362-.405.8748.8748 0 0 0-.9997.0539.8748.8748 0 0 0-.29.4399l-2.2055 6.748H7.5375l-2.2057-6.748a.8573.8573 0 0 0-.29-.4412.8748.8748 0 0 0-.9997-.0537.8585.8585 0 0 0-.3362.4049L.4332 9.5015l-.0325.0862a6.0657 6.0657 0 0 0 2.0119 7.0105l.0113.0087.03.0213 4.976 3.7264 2.462 1.8633 1.4995 1.1321a1.0085 1.0085 0 0 0 1.2197 0l1.4995-1.1321 2.4619-1.8633 5.006-3.7489.0125-.01a6.0682 6.0682 0 0 0 2.0094-7.003z"/></svg>
          <text class="gray" x="15">C#</text>
        </g>
      </g>
    </g>
  </g>
</svg>